<?xml version="1.0" encoding="UTF-8" standalone="no"?>
<!-- Created with Inkscape (http://www.inkscape.org/) -->

<svg
   xmlns:dc="http://purl.org/dc/elements/1.1/"
   xmlns:cc="http://creativecommons.org/ns#"
   xmlns:rdf="http://www.w3.org/1999/02/22-rdf-syntax-ns#"
   xmlns:svg="http://www.w3.org/2000/svg"
   xmlns="http://www.w3.org/2000/svg"
   xmlns:sodipodi="http://sodipodi.sourceforge.net/DTD/sodipodi-0.dtd"
   xmlns:inkscape="http://www.inkscape.org/namespaces/inkscape"
   version="1.0"
   width="536.40619"
   height="717.96039"
   id="svg2"
   sodipodi:docname="cdmx.svg"
   inkscape:version="0.92.2 5c3e80d, 2017-08-06">
  <metadata
     id="metadata31">
    <rdf:RDF>
      <cc:Work
         rdf:about="">
        <dc:format>image/svg+xml</dc:format>
        <dc:type
           rdf:resource="http://purl.org/dc/dcmitype/StillImage" />
        <dc:title></dc:title>
      </cc:Work>
    </rdf:RDF>
  </metadata>
  <sodipodi:namedview
     pagecolor="#ffffff"
     bordercolor="#666666"
     borderopacity="1"
     objecttolerance="10"
     gridtolerance="10"
     guidetolerance="10"
     inkscape:pageopacity="0"
     inkscape:pageshadow="2"
     inkscape:window-width="1280"
     inkscape:window-height="972"
     id="namedview29"
     showgrid="false"
     inkscape:zoom="0.4675"
     inkscape:cx="380.67153"
     inkscape:cy="-36.224881"
     inkscape:window-x="0"
     inkscape:window-y="1"
     inkscape:window-maximized="1"
     inkscape:current-layer="svg2"
     fit-margin-top="0"
     fit-margin-left="0"
     fit-margin-right="0"
     fit-margin-bottom="0" />
  <defs
     id="defs4" />
  <path
     d="m 301.05489,1.8872554 13.79667,33.9398026 -27.04147,35.871342 1.93153,24.006191 22.62654,10.485469 11.03733,0.27594 6.89833,-3.86307 41.94188,17.65974 -5.7946,11.86514 25.93773,53.53107 -16.83193,6.34646 -22.07468,-8.82987 -5.24272,4.9668 -8.278,-4.9668 -7.72614,-0.27593 -0.8278,1.93153 -11.86514,-2.20746 -32.56013,-18.48754 -13.79666,0.8278 -16.83195,-40.28627 -7.17426,-29.524859 -16.28007,-4.41494 0.55187,-4.69087 -11.03734,-10.761403 27.59334,8.278003 4.9668,-4.690865 -5.7946,-5.518676 9.1058,-12.69293 -8.82987,-9.657667 6.34647,-13.796669 7.72613,1.379667 9.1058,-21.522803 14.9004,-16.83193363 z"
     id="Gustavo_A_Madero"
     style="display:inline;fill:#fefeff;fill-opacity:1;stroke:#000000;stroke-width:0.43853834;stroke-linecap:square;stroke-linejoin:miter;stroke-miterlimit:4;stroke-dasharray:none;stroke-dashoffset:0;stroke-opacity:1"
     inkscape:connector-curvature="0" />
  <path
     d="m 190.95748,105.91413 -13.79666,48.8402 14.07259,5.51868 -1.37966,3.03527 h 3.03526 l -0.27593,-3.58714 20.695,-0.55188 -0.27593,7.72614 5.24273,4.139 12.14108,4.96681 8.27799,-0.27594 0.55187,2.75933 6.89833,-0.55186 v -2.48341 l 7.72614,-8.27799 6.07053,0.27593 2.20746,2.4834 3.31121,0.27594 4.9668,-5.24274 -16.83194,-41.11407 -1.37966,-6.6224 -53.80701,-14.34854 z"
     id="Azcapotzalco"
     style="display:inline;fill:#fefeff;fill-opacity:1;stroke:#000000;stroke-width:0.43853834;stroke-linecap:square;stroke-linejoin:miter;stroke-miterlimit:4;stroke-dasharray:none;stroke-dashoffset:0;stroke-opacity:1"
     inkscape:connector-curvature="0" />
  <path
     d="m 392.9407,187.31447 -16.83194,6.89834 -22.07466,-8.55393 -5.7946,5.51867 -8.55394,-6.34648 -5.7946,-0.27593 -0.55187,2.75933 -14.62446,-3.03526 -16.83194,-8.82988 -3.86307,13.52074 4.69087,5.24274 -4.9668,49.668 h 19.31534 l 4.41493,-4.139 25.93774,-0.55187 3.03526,2.20747 6.07053,-0.27593 8.55394,-16.00414 4.69086,-3.03526 h 14.34855 l 12.69293,-27.59333 z"
     id="Venustiano_Carranza"
     style="display:inline;fill:#fefeff;fill-opacity:1;stroke:#000000;stroke-width:0.43853834;stroke-linecap:square;stroke-linejoin:miter;stroke-miterlimit:4;stroke-dasharray:none;stroke-dashoffset:0;stroke-opacity:1"
     inkscape:connector-curvature="0" />
  <path
     d="m 288.08603,279.75215 11.5892,2.20747 v -6.6224 l 35.87134,2.4834 7.4502,-15.45227 5.7946,-0.27594 0.82779,-2.48339 24.55807,13.2448 5.79461,-1.37967 4.139,-47.73647 H 370.5901 l -4.41494,3.03527 -8.00207,15.72819 -8.27799,0.82781 -3.03527,-2.4834 h -24.28214 l -5.24273,5.24273 -21.79873,-0.27593 -4.41494,0.27593 -1.10374,6.34646 3.86308,0.27594 z"
     id="Iztacalco"
     style="display:inline;fill:#fefeff;fill-opacity:1;stroke:#000000;stroke-width:0.43853834;stroke-linecap:square;stroke-linejoin:miter;stroke-miterlimit:4;stroke-dasharray:none;stroke-dashoffset:0;stroke-opacity:1"
     inkscape:connector-curvature="0" />
  <path
     d="m 182.40354,183.72734 6.89833,-18.76347 5.7946,-0.8278 -0.27592,-2.75933 17.3838,-0.55187 -0.55187,6.6224 6.6224,5.51867 11.86514,4.69086 7.17427,0.27594 0.27593,2.4834 8.55393,-0.55187 0.8278,9.38173 -6.89833,16.83195 -4.69087,3.86306 -1.10373,7.72614 -3.58714,0.82779 0.55187,11.31327 -9.9336,11.03734 2.20746,6.07053 6.62241,-0.55186 5.51866,1.37967 1.65561,4.69085 -17.10788,7.4502 -3.58713,-2.20746 -5.7946,-10.7614 -6.07053,5.51866 -16.28007,0.55187 -1.93154,3.86308 -7.72613,-1.65561 -5.51867,5.51867 -18.48753,1.10373 -2.20747,8.82987 -9.1058,0.27594 -1.37967,-1.10374 3.58714,-7.17426 h -9.65767 l -1.93153,-1.65561 0.55186,-11.31327 8.00207,-7.17427 14.90041,-3.3112 14.07259,-17.65973 -1.10373,-18.76347 7.17426,-4.69086 1.37967,-14.0726 z"
     id="Miguel_Hidalgo"
     style="display:inline;fill:#fefeff;fill-opacity:1;stroke:#000000;stroke-width:0.43853834;stroke-linecap:square;stroke-linejoin:miter;stroke-miterlimit:4;stroke-dasharray:none;stroke-dashoffset:0;stroke-opacity:1"
     inkscape:connector-curvature="0" />
  <path
     d="m 299.39929,174.06967 -12.417,-7.72613 -14.62447,0.55186 -4.69087,4.69087 -6.89833,0.55187 -2.4834,-2.75933 -3.3112,0.27592 -6.62241,6.89834 0.27594,14.34854 -6.34646,16.00413 -4.9668,4.69087 -1.37967,7.17427 -2.75933,1.65559 v 11.03735 l -9.65768,9.10579 1.37967,3.86307 5.24274,-0.27593 7.4502,2.48339 1.37967,4.96681 20.14313,-7.17427 19.31533,1.37967 17.65974,-2.4834 4.41493,-48.8402 -5.7946,-4.96681 z"
     id="Cuauhtémoc"
     style="display:inline;fill:#fefeff;fill-opacity:1;stroke:#000000;stroke-width:0.43853834;stroke-linecap:square;stroke-linejoin:miter;stroke-miterlimit:4;stroke-dasharray:none;stroke-dashoffset:0;stroke-opacity:1"
     inkscape:connector-curvature="0" />
  <path
     d="m 279.25616,308.17329 -38.90661,-0.27593 -8.00207,-6.89834 -5.51866,2.75933 h -4.96681 l -3.86306,-1.93153 v -4.41493 l -3.31121,-1.93154 0.82781,-20.97093 4.139,-2.4834 0.55186,-9.93361 39.73441,-16.00413 20.97093,1.93153 7.4502,-1.10373 -0.8278,6.89834 3.58714,0.8278 z"
     id="Benito_Juárez"
     style="display:inline;fill:#fefeff;fill-opacity:1;stroke:#000000;stroke-width:0.43853834;stroke-linecap:square;stroke-linejoin:miter;stroke-miterlimit:4;stroke-dasharray:none;stroke-dashoffset:0;stroke-opacity:1"
     inkscape:connector-curvature="0" />
  <path
     d="m 227.24272,321.83198 5.93257,-2.06949 -0.55187,-7.17427 5.24273,-1.6556 -0.27593,-2.4834 -5.24274,-5.7946 -4.139,3.03527 -8.27799,-0.27593 -4.13901,-1.93154 0.27593,-4.139 -3.86306,-2.20747 0.8278,-23.1784 4.41493,-3.3112 1.10374,-9.1058 -3.3112,-1.93153 -5.51867,-9.38174 -3.86307,4.139 -15.17634,0.27594 -2.20746,4.69087 -8.82987,-1.93155 -4.41493,4.96681 -19.0394,1.37967 -2.24624,8.41596 -9.6189,0.13797 1.10373,1.6556 -4.69087,7.4502 -8.00206,-0.55187 -2.75934,4.139 0.55187,7.17427 -10.20953,-2.4834 -3.86306,3.86307 4.69085,1.65561 1.10374,10.76138 7.17427,1.10375 -2.20747,8.55393 h -2.4834 l 7.72614,5.51866 -11.86513,14.62447 -13.79668,4.41494 -0.55187,4.13899 -8.553927,-1.10373 -5.51866,5.24274 -1.10373,12.96887 -5.24274,6.07053 -7.450205,-0.8278 -0.55186,-5.7946 -1.379666,1.37966 1.655592,4.69087 4.139008,2.4834 v 3.86307 l -9.657671,7.45021 -7.174267,-0.27594 -4.414934,9.38174 0.8278,29.8008 -9.105802,14.9004 -12.968867,36.69914 3.3112,0.82779 v 3.31121 l 3.863068,1.37966 0.827798,2.4834 12.417002,-30.6286 21.522803,-7.4502 19.039398,-20.41907 0.55187,-10.48547 8.00206,2.4834 2.48341,-4.9668 -3.58714,-3.03526 7.4502,-21.24688 2.75933,-3.03526 -3.58712,-1.37967 -0.27594,-7.72613 8.00206,1.10373 14.34854,-21.79873 17.10787,-1.93155 0.55187,5.79461 5.24273,1.10374 2.20747,-5.7946 21.24686,-11.31328 15.17634,0.55188 -5.51867,6.07053 -2.75933,8.55393 -9.38174,8.55393 -0.82779,7.17427 4.139,4.69087 9.65766,3.86307 h 3.3112 l 14.34853,-20.695 v -11.86514 l -5.51866,-3.86307 5.24274,-4.139 6.34646,0.27594 2.75933,-7.45021 4.69087,-0.8278 z"
     id="Álvaro_Obregón"
     style="display:inline;fill:#fefeff;fill-opacity:1;stroke:#000000;stroke-width:0.43853834;stroke-linecap:square;stroke-linejoin:miter;stroke-miterlimit:4;stroke-dasharray:none;stroke-dashoffset:0;stroke-opacity:1"
     inkscape:connector-curvature="0" />
  <path
     d="m 132.45961,251.33101 -2.75933,1.6556 -0.27594,6.07054 h -6.07053 l -5.7946,11.03734 h -5.24274 v 12.69293 l -5.51867,8.00207 -4.9668,-7.4502 h -3.863067 l -0.27593,5.24273 -10.20953,3.86306 -7.450203,7.4502 -2.759332,-0.8278 -1.379666,-10.20953 -2.759334,-2.20747 -5.242735,6.6224 -5.518667,6.89833 -8.829868,5.24275 -1.379667,1.93152 2.207467,5.7946 -3.311199,2.48341 -5.518667,-1.37967 -3.863068,3.58713 0.275934,4.41493 4.414932,2.20748 -0.275932,11.03733 -4.690868,0.27593 -0.8278,7.4502 -2.759334,3.03527 1.103735,6.07053 -4.139,-3.03526 h -1.103735 v 4.41493 l 1.379667,1.6556 -17.659735,14.62447 0.275934,4.41493 h -3.587134 l -1.103734,-1.37967 -0.827801,3.58714 1.103735,2.75934 -3.5871344,1.6556 h -1.931533 l -0.551868,1.93153 2.483401,4.41493 4.4149344,0.27594 2.207468,12.69294 -4.690869,3.86306 0.551866,3.58713 -2.2074674,1.93153 -3.311199,-0.27593 -6.07053295,6.89834 -0.275934,5.51866 19.31533535,0.82781 -0.275934,4.139 h 3.587134 l 6.070535,5.7946 -0.275934,5.24272 5.518666,0.55188 0.551869,3.03526 -5.242735,3.58713 v 23.73027 l 4.139,1.10374 v 2.75933 l 3.587134,-1.6556 13.520735,-38.63067 8.829868,-12.96887 -0.8278,-30.35267 5.7946,-10.76139 7.726134,0.55185 7.726133,-6.07053 v -1.93153 l -3.863062,-2.20747 -1.931538,-6.89833 5.24273,-4.69087 0.275934,7.17427 4.966809,0.82779 4.69087,-5.24272 1.10372,-12.96887 6.89834,-6.07054 6.622397,1.10373 1.10373,-3.58712 13.79667,-3.86307 10.48547,-13.24481 -8.27801,-6.62239 4.13901,-0.55187 1.65559,-5.24274 -6.07052,-1.37967 -1.6556,-10.76139 -5.51868,-1.93154 7.17428,-7.17427 8.00206,2.75934 -0.8278,-6.34647 3.58713,-4.69087 7.72614,0.55187 3.03527,-6.07054 -3.3112,-4.13899 3.3112,-4.96681 h -7.72614 l -2.4834,-4.13899 z"
     id="Cuajimalpa_de_Morelos"
     style="display:inline;fill:#fefeff;fill-opacity:1;stroke:#000000;stroke-width:0.54817289;stroke-linecap:square;stroke-linejoin:miter;stroke-miterlimit:4;stroke-dasharray:none;stroke-dashoffset:0;stroke-opacity:1"
     inkscape:connector-curvature="0" />
  <path
     d="m 87.482473,498.29137 -6.622397,-0.27593 -18.211608,-9.1058 -0.551866,-2.75933 -3.587134,-3.03527 -1.103732,-2.48341 h -5.242735 l -0.275932,0.82781 h -2.759335 l 12.417002,-31.18047 21.798738,-7.4502 19.591266,-21.24688 v -8.55392 l 7.72612,2.48339 4.41494,-8.27799 -4.41494,-3.03527 6.62241,-19.0394 4.139,-5.7946 -4.139,-1.37967 -1.10373,-4.69087 7.72613,0.55186 14.34854,-21.79873 14.34853,-1.37966 0.55187,6.34646 7.72614,0.8278 2.20746,-6.34646 20.695,-11.31327 11.5892,0.27593 -5.24273,5.24274 -1.10373,7.17427 -10.20954,8.55393 v 10.20953 h -5.24273 l -6.89833,8.00207 v 4.69086 l -3.58714,8.55394 -10.76141,1.93153 -0.55185,8.00207 3.31119,2.4834 -6.89833,9.93361 0.27593,39.18253 -8.00207,10.7614 0.27593,10.20954 -17.10786,8.55393 -10.20953,8.82987 -3.03527,9.1058 -19.591267,0.27593 -2.20747,-3.58713 z"
     id="Magdalena_Contreras"
     style="display:inline;fill:#fefeff;fill-opacity:1;stroke:#000000;stroke-width:0.43853834;stroke-linecap:square;stroke-linejoin:miter;stroke-miterlimit:4;stroke-dasharray:none;stroke-dashoffset:0;stroke-opacity:1"
     inkscape:connector-curvature="0" />
  <path
     d="m 62.372536,491.1171 -0.275934,2.75934 -3.311199,1.65559 17.659739,9.93362 6.898332,42.49373 28.145196,66.49994 68.43148,43.0456 110.92521,8.55394 -3.58714,-7.72614 -31.73233,-29.52487 15.17633,-34.21574 1.6556,-25.66179 20.14314,15.17634 2.75933,-42.49375 3.03527,-5.24273 -1.10374,-28.42114 -3.31119,-1.93154 -2.20747,2.48341 -21.24687,0.27593 -11.03734,-9.38173 0.55187,-3.58714 3.58713,-3.03526 0.55187,-5.24274 -5.51866,-5.7946 v -17.65973 l 3.86306,-0.27593 -0.27594,-9.1058 7.72614,0.27593 3.03527,2.20746 -0.27594,3.58714 h 3.03527 l 8.55393,-10.7614 1.93154,-14.90041 -6.62241,-6.34647 -0.55185,-19.0394 38.35473,-10.20953 13.52074,-8.82987 v -3.58713 l -11.5892,0.27593 -29.80081,-12.41699 -8.278,10.76138 -9.38173,-0.55185 -4.96681,7.4502 -7.4502,-0.82781 -5.7946,-6.62239 -40.28627,-0.27594 c 0,0 -11.86513,-4.96681 -12.96886,-4.96681 -1.10373,0 -6.89833,0 -6.89833,0 l -10.76141,-3.58712 -2.20747,-2.75933 -5.7946,0.82779 -5.7946,5.7946 0.27594,4.139 -4.41494,10.48547 -10.7614,1.37966 -0.27594,5.7946 3.86308,3.31121 -7.45021,11.03734 0.55186,38.35474 -8.55393,11.03732 0.27594,11.31327 -17.10787,8.278 -10.48546,9.1058 -2.48341,9.93361 H 89.965873 l -3.03527,-4.13901 h -7.174269 z"
     id="Tlalpan"
     style="display:inline;fill:#fefeff;fill-opacity:1;stroke:#000000;stroke-width:0.43853834;stroke-linecap:square;stroke-linejoin:miter;stroke-miterlimit:4;stroke-dasharray:none;stroke-dashoffset:0;stroke-opacity:1"
     inkscape:connector-curvature="0" />
  <path
     d="m 293.32875,665.78292 97.68042,51.87547 17.10787,-36.69913 22.07467,-15.7282 48.28833,6.34646 15.17634,11.03734 12.14107,-17.3838 8.00206,-55.73854 -10.48547,-18.76347 16.556,-19.59127 -16.28006,-9.1058 14.62447,-6.07053 0.55186,-10.48547 -17.3838,-13.2448 1.10374,-12.96887 -8.27801,-1.65561 -5.24273,-9.10579 -5.51866,0.55186 -0.82781,-8.27799 5.51868,-6.07054 -13.52074,-12.417 h -50.21987 l -86.64308,23.17841 -43.8734,82.50407 -20.14315,-15.45227 -1.10373,23.17841 -14.34853,32.2842 31.4564,30.07674 z"
     id="Milpa_Alta"
     style="display:inline;fill:#fefeff;fill-opacity:1;stroke:#000000;stroke-width:0.43853834;stroke-linecap:square;stroke-linejoin:miter;stroke-miterlimit:4;stroke-dasharray:none;stroke-dashoffset:0;stroke-opacity:1"
     inkscape:connector-curvature="0" />
  <path
     d="m 280.91175,309.82889 h -41.11407 l -0.27593,2.75933 -4.9668,2.20747 0.55186,7.17427 -5.7946,1.65559 -2.48339,8.00207 -5.7946,0.8278 -1.93154,7.4502 h -7.17427 l -3.3112,1.6556 5.51868,4.41494 -0.82781,11.5892 -14.34853,20.69501 h 4.69087 l 8.82986,4.13899 42.49374,0.8278 4.9668,6.07053 4.69086,0.82781 6.89834,-7.17427 8.82987,0.27593 9.1058,-11.31327 30.07673,13.52074 h 11.31328 l 1.10373,-31.18047 -3.86307,0.8278 -15.17633,-18.21161 v -6.34646 l -11.31328,-13.52073 0.82781,-8.55394 -10.7614,-1.10374 -1.10374,2.75935 z"
     id="Coyoacán"
     style="display:inline;fill:#fefeff;fill-opacity:1;stroke:#000000;stroke-width:0.43853834;stroke-linecap:square;stroke-linejoin:miter;stroke-miterlimit:4;stroke-dasharray:none;stroke-dashoffset:0;stroke-opacity:1"
     inkscape:connector-curvature="0" />
  <path
     d="m 288.08603,281.95962 -6.89834,26.21367 h 8.278 l 2.20747,-3.03527 13.24479,1.6556 -1.10373,9.38173 10.76141,13.79667 v 5.7946 l 14.0726,17.3838 6.07053,-1.37966 -0.55187,9.38173 30.35267,37.25101 6.62241,4.41493 8.82987,-8.82987 v -1.93153 l -1.93154,-0.8278 -1.6556,-15.72821 6.34647,2.20747 8.55393,-11.5892 4.41494,4.69087 2.75933,-3.86307 3.03526,1.93154 11.5892,-9.9336 43.87342,-14.0726 28.42112,0.8278 1.37967,2.75933 3.86307,0.55186 1.10373,-1.6556 14.62447,-0.8278 -40.83813,-43.59747 3.3112,-11.86514 -84.98748,-36.69913 -1.6556,18.48754 -8.00207,1.6556 -23.45434,-12.69294 -0.82779,2.4834 h -5.51867 l -8.00207,15.45227 -35.31947,-2.75933 -0.27593,7.4502 z"
     id="Iztapalapa"
     style="display:inline;fill:#fefeff;fill-opacity:1;stroke:#000000;stroke-width:0.43853834;stroke-linecap:square;stroke-linejoin:miter;stroke-miterlimit:4;stroke-dasharray:none;stroke-dashoffset:0;stroke-opacity:1"
     inkscape:connector-curvature="0" />
  <path
     d="m 434.05477,467.38684 -9.38174,13.24479 51.59955,0.27594 14.62447,14.34854 -6.34647,5.7946 0.27593,6.07052 5.51867,-0.27592 4.41493,9.10581 7.72614,1.65558 3.3112,-2.20746 -1.6556,-18.2116 h 4.96679 l 1.6556,-4.69087 10.76141,1.10374 3.3112,-5.24274 8.82987,6.07053 2.48339,-12.69293 -34.21573,-7.72613 -0.27594,-28.42114 h -11.03733 l 9.10581,-73.67421 3.58712,0.8278 3.58714,-2.75933 c 0,0 -1.6556,-13.52074 0,-13.2448 1.6556,0.27593 6.6224,1.10373 6.6224,1.10373 l -3.86307,-3.86306 1.37967,-1.37967 -3.86307,-3.86308 -14.34854,0.27594 -2.20746,2.75934 -5.7946,-2.4834 -0.55187,-2.20746 -27.59333,-0.27594 -43.04561,14.62447 -11.03733,9.1058 -3.58713,-0.55187 -3.58714,3.58714 -3.58713,-3.86308 -8.27801,9.65768 -5.24272,-1.10373 1.37966,12.14105 2.75933,1.37967 v 3.86308 l -9.38174,7.45019 17.93568,11.5892 19.03939,3.58713 11.5892,12.14108 17.65974,3.03526 -0.55186,2.20747 7.17426,-0.27593 -2.48339,4.9668 3.03527,0.27593 4.13899,-4.139 3.31121,1.10373 -1.93154,25.93774 -7.17427,2.20746 -0.8278,-5.51866 -2.75933,0.27594 -1.6556,8.27799 z"
     id="Tláhuac"
     style="display:inline;fill:#fefeff;fill-opacity:1;stroke:#000000;stroke-width:0.43853834;stroke-linecap:square;stroke-linejoin:miter;stroke-miterlimit:4;stroke-dasharray:none;stroke-dashoffset:0;stroke-opacity:1"
     inkscape:connector-curvature="0" />
  <path
     d="m 334.16689,364.4637 -1.37967,27.59333 -15.17633,9.38174 -36.4232,9.93359 v 16.00413 l 7.4502,8.55395 -3.03527,15.72819 -9.38173,11.86514 -5.24274,-0.27594 v -4.9668 l -1.6556,-1.37966 -5.7946,-0.55187 0.55187,9.9336 -3.58714,0.27594 v 14.34853 l 5.24274,6.6224 -0.55187,7.17427 -3.3112,2.20746 v 2.20747 l 8.55394,7.17427 h 20.41907 l 2.75933,-2.75933 6.34647,4.139 0.55186,29.24893 -3.58713,6.07053 -1.93153,39.73441 42.21779,-79.74474 85.81528,-22.62653 10.48547,-15.45227 4.13901,1.6556 2.20746,-8.55393 h 4.69087 l 2.20746,5.51866 3.86307,-1.93153 0.8278,-22.35061 -1.10373,-0.82779 -3.03527,3.58712 h -6.07053 l 1.93153,-4.139 h -7.4502 l 1.6556,-2.75933 -17.10787,-2.75933 -11.5892,-12.417 -18.76346,-3.3112 -27.31741,-16.28006 z"
     id="Xochimilco"
     style="display:inline;fill:#fefeff;fill-opacity:1;stroke:#000000;stroke-width:0.43853834;stroke-linecap:square;stroke-linejoin:miter;stroke-miterlimit:4;stroke-dasharray:none;stroke-dashoffset:0;stroke-opacity:1"
     inkscape:connector-curvature="0" />
</svg>
